<svg width="65" height="60" viewBox="0 0 65 60" fill="none" xmlns="http://www.w3.org/2000/svg">
<mask id="mask0_58_278" style="mask-type:alpha" maskUnits="userSpaceOnUse" x="0" y="0" width="65" height="60">
<rect width="65" height="60" rx="8" fill="#D9D9D9"/>
</mask>
<g mask="url(#mask0_58_278)">
<path d="M32.5001 52.5L28.573 49.25C24.014 45.4583 20.2449 42.1875 17.2657 39.4375C14.2865 36.6875 11.9167 34.2188 10.1563 32.0313C8.39591 29.8438 7.16588 27.8333 6.46623 26C5.76657 24.1667 5.41675 22.2917 5.41675 20.375C5.41675 16.4583 6.83862 13.1875 9.68237 10.5625C12.5261 7.9375 16.0695 6.625 20.3126 6.625C22.6598 6.625 24.8942 7.08333 27.0157 8C29.1372 8.91667 30.9654 10.2083 32.5001 11.875C34.0348 10.2083 35.8629 8.91667 37.9845 8C40.106 7.08333 42.3404 6.625 44.6876 6.625C48.9306 6.625 52.474 7.9375 55.3178 10.5625C58.1615 13.1875 59.5834 16.4583 59.5834 20.375C59.5834 22.2917 59.2336 24.1667 58.5339 26C57.8343 27.8333 56.6043 29.8438 54.8438 32.0313C53.0834 34.2188 50.7136 36.6875 47.7345 39.4375C44.7553 42.1875 40.9862 45.4583 36.4272 49.25L32.5001 52.5ZM32.5001 45.75C36.8334 42.1667 40.3994 39.0938 43.198 36.5313C45.9966 33.9688 48.2084 31.7396 49.8334 29.8438C51.4584 27.9479 52.5869 26.2604 53.2188 24.7813C53.8508 23.3021 54.1668 21.8333 54.1668 20.375C54.1668 17.875 53.264 15.7917 51.4584 14.125C49.6529 12.4583 47.3959 11.625 44.6876 11.625C42.5661 11.625 40.6025 12.1771 38.797 13.2813C36.9914 14.3854 35.7501 15.7917 35.073 17.5H29.9272C29.2501 15.7917 28.0088 14.3854 26.2032 13.2813C24.3977 12.1771 22.4341 11.625 20.3126 11.625C17.6042 11.625 15.3473 12.4583 13.5417 14.125C11.7362 15.7917 10.8334 17.875 10.8334 20.375C10.8334 21.8333 11.1494 23.3021 11.7813 24.7813C12.4133 26.2604 13.5417 27.9479 15.1667 29.8438C16.7917 31.7396 19.0036 33.9688 21.8022 36.5313C24.6008 39.0938 28.1667 42.1667 32.5001 45.75Z" fill="#DD4859"/>
</g>
</svg>
