<svg width="70" height="64" viewBox="0 0 70 64" fill="none" xmlns="http://www.w3.org/2000/svg">
<mask id="mask0_31_1223" style="mask-type:alpha" maskUnits="userSpaceOnUse" x="0" y="0" width="70" height="64">
<rect width="70" height="63.5526" fill="#D33030"/>
</mask>
<g mask="url(#mask0_31_1223)">
<path d="M32.0833 51.438V33.299L14.5833 24.0971V42.2361L32.0833 51.438ZM37.9167 51.438L55.4167 42.2361V24.0971L37.9167 33.299V51.438ZM32.0833 57.5285L11.6667 46.8702C10.7431 46.3847 10.026 45.7447 9.51563 44.9503C9.00521 44.1559 8.75 43.2732 8.75 42.3023V21.2505C8.75 20.2796 9.00521 19.3969 9.51563 18.6025C10.026 17.8081 10.7431 17.1681 11.6667 16.6827L32.0833 6.02435C33.0069 5.53888 33.9792 5.29614 35 5.29614C36.0208 5.29614 36.9931 5.53888 37.9167 6.02435L58.3333 16.6827C59.257 17.1681 59.974 17.8081 60.4844 18.6025C60.9948 19.3969 61.25 20.2796 61.25 21.2505V42.3023C61.25 43.2732 60.9948 44.1559 60.4844 44.9503C59.974 45.7447 59.257 46.3847 58.3333 46.8702L37.9167 57.5285C36.9931 58.0139 36.0208 58.2567 35 58.2567C33.9792 58.2567 33.0069 58.0139 32.0833 57.5285ZM46.6667 22.5745L52.2813 19.6617L35 10.5922L29.3125 13.5712L46.6667 22.5745ZM35 28.7312L40.6875 25.7521L23.4063 16.6827L17.7188 19.6617L35 28.7312Z" fill="#2D3848"/>
</g>
</svg>
