<svg width="40" height="41" viewBox="0 0 40 41" fill="none" xmlns="http://www.w3.org/2000/svg">
<path d="M0 19.7482C0 8.84158 8.84158 0 19.7482 0C30.6548 0 39.4964 8.84157 39.4964 19.7482V20.6083C39.4964 31.5149 30.6548 40.3565 19.7482 40.3565C8.84158 40.3565 0 31.5149 0 20.6083V19.7482Z" fill="black"/>
<path d="M19.7481 11.9124C22.3654 11.9124 22.7223 11.9124 23.7929 11.9124C24.7447 11.9124 25.2205 12.1556 25.5774 12.2771C26.0533 12.5202 26.4102 12.6418 26.7671 13.0064C27.124 13.3711 27.3619 13.7358 27.4809 14.222C27.5998 14.5867 27.7188 15.0729 27.8378 16.0453C27.8378 17.1393 27.8378 17.3825 27.8378 20.1782C27.8378 22.974 27.8378 23.2171 27.8378 24.3111C27.8378 25.2836 27.5998 25.7698 27.4809 26.1345C27.2429 26.6207 27.124 26.9854 26.7671 27.35C26.4102 27.7147 26.0533 27.9578 25.5774 28.0794C25.2205 28.2009 24.7447 28.3225 23.7929 28.444C22.7223 28.444 22.4843 28.444 19.7481 28.444C17.0119 28.444 16.774 28.444 15.7033 28.444C14.7516 28.444 14.2757 28.2009 13.9188 28.0794C13.443 27.8362 13.0861 27.7147 12.7292 27.35C12.3723 26.9854 12.1344 26.6207 12.0154 26.1345C11.8964 25.7698 11.7775 25.2836 11.6585 24.3111C11.6585 23.2171 11.6585 22.974 11.6585 20.1782C11.6585 17.3825 11.6585 17.1393 11.6585 16.0453C11.6585 15.0729 11.8964 14.5867 12.0154 14.222C12.2533 13.7358 12.3723 13.3711 12.7292 13.0064C13.0861 12.6418 13.443 12.3987 13.9188 12.2771C14.2757 12.1556 14.7516 12.034 15.7033 11.9124C16.774 11.9124 17.1309 11.9124 19.7481 11.9124ZM19.7481 10.0891C17.0119 10.0891 16.774 10.0891 15.7033 10.0891C14.6326 10.0891 13.9188 10.3322 13.324 10.5753C12.7292 10.8184 12.1344 11.1831 11.5395 11.7909C10.9447 12.3987 10.7068 12.8849 10.3499 13.6142C10.112 14.222 9.99299 14.9513 9.87402 16.0453C9.87402 17.1393 9.87402 17.504 9.87402 20.1782C9.87402 22.974 9.87402 23.2171 9.87402 24.3111C9.87402 25.4051 10.112 26.1345 10.3499 26.7422C10.5878 27.35 10.9447 27.9578 11.5395 28.5656C12.1344 29.1734 12.6102 29.4165 13.324 29.7811C13.9188 30.0243 14.6326 30.1458 15.7033 30.2674C16.774 30.2674 17.1309 30.2674 19.7481 30.2674C22.3654 30.2674 22.7223 30.2674 23.7929 30.2674C24.8636 30.2674 25.5774 30.0243 26.1722 29.7811C26.7671 29.538 27.3619 29.1734 27.9567 28.5656C28.5515 27.9578 28.7895 27.4716 29.1464 26.7422C29.3843 26.1345 29.5033 25.4051 29.6222 24.3111C29.6222 23.2171 29.6222 22.8525 29.6222 20.1782C29.6222 17.504 29.6222 17.1393 29.6222 16.0453C29.6222 14.9513 29.3843 14.222 29.1464 13.6142C28.9084 13.0064 28.5515 12.3987 27.9567 11.7909C27.3619 11.1831 26.886 10.94 26.1722 10.5753C25.5774 10.3322 24.8636 10.2107 23.7929 10.0891C22.7223 10.0891 22.4843 10.0891 19.7481 10.0891Z" fill="white"/>
<path d="M19.7481 14.9513C16.893 14.9513 14.6326 17.2609 14.6326 20.1782C14.6326 23.0956 16.893 25.4051 19.7481 25.4051C22.6033 25.4051 24.8636 23.0956 24.8636 20.1782C24.8636 17.2609 22.6033 14.9513 19.7481 14.9513ZM19.7481 23.5818C17.9637 23.5818 16.4171 22.1231 16.4171 20.1782C16.4171 18.3549 17.8447 16.7747 19.7481 16.7747C21.5326 16.7747 23.0792 18.2333 23.0792 20.1782C23.0792 22.0016 21.5326 23.5818 19.7481 23.5818Z" fill="white"/>
<path d="M24.9826 16.0453C25.6396 16.0453 26.1722 15.5011 26.1722 14.8298C26.1722 14.1585 25.6396 13.6142 24.9826 13.6142C24.3256 13.6142 23.7929 14.1585 23.7929 14.8298C23.7929 15.5011 24.3256 16.0453 24.9826 16.0453Z" fill="white"/>
</svg>
