<svg width="40" height="41" viewBox="0 0 40 41" fill="none" xmlns="http://www.w3.org/2000/svg">
<path d="M0 19.7482C0 8.84158 8.84158 0 19.7482 0C30.6548 0 39.4964 8.84157 39.4964 19.7482V20.6083C39.4964 31.5149 30.6548 40.3565 19.7482 40.3565C8.84158 40.3565 0 31.5149 0 20.6083V19.7482Z" fill="black"/>
<path d="M20.7184 27.2407C13.2965 27.2407 9.06311 21.9386 8.88672 13.116H12.6045C12.7266 19.5916 15.4674 22.3345 17.6383 22.9001V13.116H21.139V18.7008C23.2828 18.4605 25.5352 15.9155 26.295 13.116H29.7956C29.5093 14.5679 28.9386 15.9426 28.1191 17.1541C27.2996 18.3657 26.2491 19.388 25.0331 20.1571C26.3904 20.8599 27.5892 21.8547 28.5505 23.0757C29.5118 24.2967 30.2136 25.7163 30.6098 27.2407H26.7563C26.4007 25.9167 25.678 24.7314 24.6788 23.8335C23.6795 22.9356 22.4481 22.3649 21.139 22.1931V27.2407H20.7184Z" fill="white"/>
</svg>
